# Blender v3.2.0 OBJ File: ''
# www.blender.org
mtllib oskbjr-1-sphereForPjas.mtl
o Sphere_Sphere.001
v 0.000000 0.707107 -0.707107
v 0.000000 -0.000000 -1.000000
v 0.000000 -0.707107 -0.707107
v 0.500000 0.707107 -0.500000
v 0.707107 -0.000000 -0.707107
v 0.500000 -0.707107 -0.500000
v 0.707107 0.707107 0.000000
v 1.000000 -0.000000 0.000000
v 0.707107 -0.707107 0.000000
v 0.500000 0.707107 0.500000
v 0.707107 -0.000000 0.707107
v 0.500000 -0.707107 0.500000
v 0.000000 -1.000000 0.000000
v 0.000000 0.707107 0.707107
v 0.000000 -0.000000 1.000000
v 0.000000 -0.707107 0.707107
v -0.000000 1.000000 0.000000
v -0.500000 0.707107 0.500000
v -0.707107 -0.000000 0.707107
v -0.500000 -0.707107 0.500000
v -0.707107 0.707107 0.000000
v -1.000000 -0.000000 0.000000
v -0.707107 -0.707107 0.000000
v -0.500000 0.707107 -0.500000
v -0.707107 -0.000000 -0.707107
v -0.500000 -0.707107 -0.500000
vt 0.750000 0.500000
vt 0.750000 0.750000
vt 0.625000 0.750000
vt 0.625000 0.500000
vt 0.750000 0.250000
vt 0.625000 0.250000
vt 0.687500 1.000000
vt 0.687500 0.000000
vt 0.500000 0.500000
vt 0.500000 0.250000
vt 0.562500 1.000000
vt 0.500000 0.750000
vt 0.562500 0.000000
vt 0.375000 0.500000
vt 0.375000 0.250000
vt 0.437500 1.000000
vt 0.375000 0.750000
vt 0.437500 0.000000
vt 0.250000 0.750000
vt 0.250000 0.500000
vt 0.250000 0.250000
vt 0.312500 1.000000
vt 0.312500 0.000000
vt 0.187500 0.000000
vt 0.125000 0.250000
vt 0.125000 0.750000
vt 0.125000 0.500000
vt 0.187500 1.000000
vt 0.062500 0.000000
vt 0.000000 0.250000
vt 0.000000 0.750000
vt 0.000000 0.500000
vt 0.062500 1.000000
vt 0.937500 0.000000
vt 1.000000 0.250000
vt 0.875000 0.250000
vt 1.000000 0.500000
vt 1.000000 0.750000
vt 0.875000 0.750000
vt 0.875000 0.500000
vt 0.937500 1.000000
vt 0.812500 0.000000
vt 0.812500 1.000000
vn 0.3574 0.3574 -0.8629
vn 0.3574 -0.3574 -0.8629
vn 0.1566 0.9125 -0.3780
vn 0.1566 -0.9125 -0.3780
vn 0.8629 -0.3574 -0.3574
vn 0.3780 0.9125 -0.1566
vn 0.3780 -0.9125 -0.1566
vn 0.8629 0.3574 -0.3574
vn 0.8629 -0.3574 0.3574
vn 0.3780 0.9125 0.1566
vn 0.3780 -0.9125 0.1566
vn 0.8629 0.3574 0.3574
vn 0.3574 0.3574 0.8629
vn 0.3574 -0.3574 0.8629
vn 0.1566 0.9125 0.3780
vn 0.1566 -0.9125 0.3780
vn -0.1566 -0.9125 0.3780
vn -0.3574 0.3574 0.8629
vn -0.3574 -0.3574 0.8629
vn -0.1566 0.9125 0.3780
vn -0.3780 -0.9125 0.1566
vn -0.8629 0.3574 0.3574
vn -0.8629 -0.3574 0.3574
vn -0.3780 0.9125 0.1566
vn -0.3780 -0.9125 -0.1566
vn -0.8629 0.3574 -0.3574
vn -0.8629 -0.3574 -0.3574
vn -0.3780 0.9125 -0.1566
vn -0.1566 -0.9125 -0.3780
vn -0.3574 0.3574 -0.8629
vn -0.3574 -0.3574 -0.8629
vn -0.1566 0.9125 -0.3780
usemtl None
s off
f 2/1/1 1/2/1 4/3/1 5/4/1
f 3/5/2 2/1/2 5/4/2 6/6/2
f 1/2/3 17/7/3 4/3/3
f 13/8/4 3/5/4 6/6/4
f 6/6/5 5/4/5 8/9/5 9/10/5
f 4/3/6 17/11/6 7/12/6
f 13/13/7 6/6/7 9/10/7
f 5/4/8 4/3/8 7/12/8 8/9/8
f 9/10/9 8/9/9 11/14/9 12/15/9
f 7/12/10 17/16/10 10/17/10
f 13/18/11 9/10/11 12/15/11
f 8/9/12 7/12/12 10/17/12 11/14/12
f 11/14/13 10/17/13 14/19/13 15/20/13
f 12/15/14 11/14/14 15/20/14 16/21/14
f 10/17/15 17/22/15 14/19/15
f 13/23/16 12/15/16 16/21/16
f 13/24/17 16/21/17 20/25/17
f 15/20/18 14/19/18 18/26/18 19/27/18
f 16/21/19 15/20/19 19/27/19 20/25/19
f 14/19/20 17/28/20 18/26/20
f 13/29/21 20/25/21 23/30/21
f 19/27/22 18/26/22 21/31/22 22/32/22
f 20/25/23 19/27/23 22/32/23 23/30/23
f 18/26/24 17/33/24 21/31/24
f 13/34/25 23/35/25 26/36/25
f 22/37/26 21/38/26 24/39/26 25/40/26
f 23/35/27 22/37/27 25/40/27 26/36/27
f 21/38/28 17/41/28 24/39/28
f 13/42/29 26/36/29 3/5/29
f 25/40/30 24/39/30 1/2/30 2/1/30
f 26/36/31 25/40/31 2/1/31 3/5/31
f 24/39/32 17/43/32 1/2/32
